<?xml version="1.0" encoding="utf-8"?>
<!-- Generator: Adobe Illustrator 26.3.1, SVG Export Plug-In . SVG Version: 6.00 Build 0)  -->
<svg version="1.1" id="a" xmlns="http://www.w3.org/2000/svg" xmlns:xlink="http://www.w3.org/1999/xlink" x="0px" y="0px"
	 viewBox="0 0 291.2 67.7" style="enable-background:new 0 0 291.2 67.7;" xml:space="preserve">
<style type="text/css">
	.st0{fill:#FFFFFF;}
	.st1{fill:#FFD100;}
</style>
<path class="st0" d="M78.1,46.9v-1.6c0-18.4-10.8-29.7-26.5-29.7c-6.7,0-13.2,2.8-18.2,7.7c-4.9,4.9-7.5,11.2-7.5,18.1
	s2.5,13.2,7.3,18.3c5.1,5.3,11.1,7.9,18.7,7.9c11,0,19.2-5.2,24-15.5h-16c-2.2,1.9-4.6,2.8-7.5,2.8c-6.3,0-10.1-2.8-11.4-8
	C41,46.9,78.1,46.9,78.1,46.9z M63.4,36.6h-23c1-4.7,5.3-7.8,11.4-7.8S61.7,31.6,63.4,36.6"/>
<path class="st0" d="M133,46.9v-1.6c0-18.4-10.8-29.7-26.5-29.7c-6.7,0-13.2,2.8-18.2,7.7c-4.9,4.9-7.5,11.2-7.5,18.1
	s2.5,13.2,7.3,18.3c5.1,5.3,11.1,7.9,18.7,7.9c11,0,19.2-5.2,24-15.5h-16c-2.2,1.9-4.6,2.8-7.5,2.8c-6.3,0-10.1-2.8-11.4-8
	C95.9,46.9,133,46.9,133,46.9z M118.4,36.6H95.3c1-4.7,5.3-7.8,11.4-7.8S116.6,31.6,118.4,36.6"/>
<path class="st0" d="M5.3,28.2v38.3h14.2V28.2h5.8v-11h-5.8V16c0-4.5,1-6,5.4-6h0.4V0.1C24.5,0.1,23.7,0,23,0
	C10.9,0,5.2,4.8,5.2,15.3c0,0.5,0.1,1.2,0.1,1.8H0v11L5.3,28.2L5.3,28.2z"/>
<path class="st0" d="M138.5,28.2v38.3h14.2V28.2h5.8v-11h-5.8V16c0-4.5,1-6,5.4-6h0.4V0.1c-0.8,0-1.6-0.1-2.3-0.1
	c-12.1,0-17.8,4.8-17.8,15.3c0,0.5,0.1,1.2,0.1,1.8h-5.3v11L138.5,28.2L138.5,28.2L138.5,28.2z"/>
<path class="st0" d="M210.6,41.5c0-6.7-2.9-13.5-8.1-18.5c-5-4.7-11.1-7.2-18.3-7.2c-6.7,0-13.2,2.8-18.2,7.7
	c-4.9,4.9-7.5,11.2-7.5,18.1s2.5,13.2,7.3,18.2c5.1,5.3,11.1,7.9,18.6,7.9s13.7-2.7,18.8-7.7C208.1,55.1,210.6,49,210.6,41.5
	 M196.2,41.9c0,6.7-5.2,12.1-11.7,12.1s-11.7-5.4-11.7-12.1s5.2-12.2,11.7-12.2S196.2,35.1,196.2,41.9"/>
<path class="st1" d="M232.9,33.5c-7-0.4-12.6-6-13-13h30.6v-0.3c0-12-7.7-20-18.3-20c-11.2,0-18.8,8.2-18.8,18.9
	c0,10.1,7.9,18.9,18.6,18.9c7.8,0,14-4.3,17.3-12.3h-3.1c-2.2,4.7-7,7.9-12.5,7.9C233.5,33.5,233.2,33.5,232.9,33.5"/>
<path class="st1" d="M271.7,33.5c7-0.4,12.6-6,13-13h-30.6v-0.3c0-12,7.7-20,18.3-20c11.2,0,18.8,8.2,18.8,18.9
	c0,10.1-7.9,18.9-18.6,18.9c-7.8,0-14-4.3-17.3-12.3h3.1c2.2,4.7,7,7.9,12.5,7.9C271.2,33.5,271.5,33.5,271.7,33.5"/>
</svg>
