<svg viewBox="0 0 291.2 67.7" xmlns="http://www.w3.org/2000/svg"><g fill="#fff"><path d="m78.1 46.9v-1.6c0-18.4-10.8-29.7-26.5-29.7-6.7 0-13.2 2.8-18.2 7.7-4.9 4.9-7.5 11.2-7.5 18.1s2.5 13.2 7.3 18.3c5.1 5.3 11.1 7.9 18.7 7.9 11 0 19.2-5.2 24-15.5h-16c-2.2 1.9-4.6 2.8-7.5 2.8-6.3 0-10.1-2.8-11.4-8zm-14.7-10.3h-23c1-4.7 5.3-7.8 11.4-7.8s9.9 2.8 11.6 7.8"/><path d="m133 46.9v-1.6c0-18.4-10.8-29.7-26.5-29.7-6.7 0-13.2 2.8-18.2 7.7-4.9 4.9-7.5 11.2-7.5 18.1s2.5 13.2 7.3 18.3c5.1 5.3 11.1 7.9 18.7 7.9 11 0 19.2-5.2 24-15.5h-16c-2.2 1.9-4.6 2.8-7.5 2.8-6.3 0-10.1-2.8-11.4-8zm-14.6-10.3h-23.1c1-4.7 5.3-7.8 11.4-7.8s9.9 2.8 11.7 7.8"/><path d="m5.3 28.2v38.3h14.2v-38.3h5.8v-11h-5.8v-1.2c0-4.5 1-6 5.4-6h.4v-9.9c-.8 0-1.6-.1-2.3-.1-12.1 0-17.8 4.8-17.8 15.3 0 .5.1 1.2.1 1.8h-5.3v11z"/><path d="m138.5 28.2v38.3h14.2v-38.3h5.8v-11h-5.8v-1.2c0-4.5 1-6 5.4-6h.4v-9.9c-.8 0-1.6-.1-2.3-.1-12.1 0-17.8 4.8-17.8 15.3 0 .5.1 1.2.1 1.8h-5.3v11z"/><path d="m210.6 41.5c0-6.7-2.9-13.5-8.1-18.5-5-4.7-11.1-7.2-18.3-7.2-6.7 0-13.2 2.8-18.2 7.7-4.9 4.9-7.5 11.2-7.5 18.1s2.5 13.2 7.3 18.2c5.1 5.3 11.1 7.9 18.6 7.9s13.7-2.7 18.8-7.7c4.9-4.9 7.4-11 7.4-18.5m-14.4.4c0 6.7-5.2 12.1-11.7 12.1s-11.7-5.4-11.7-12.1 5.2-12.2 11.7-12.2 11.7 5.4 11.7 12.2"/><path d="m232.9 33.5c-7-.4-12.6-6-13-13h30.6v-.3c0-12-7.7-20-18.3-20-11.2 0-18.8 8.2-18.8 18.9 0 10.1 7.9 18.9 18.6 18.9 7.8 0 14-4.3 17.3-12.3h-3.1c-2.2 4.7-7 7.9-12.5 7.9-.2-.1-.5-.1-.8-.1"/><path d="m271.7 33.5c7-.4 12.6-6 13-13h-30.6v-.3c0-12 7.7-20 18.3-20 11.2 0 18.8 8.2 18.8 18.9 0 10.1-7.9 18.9-18.6 18.9-7.8 0-14-4.3-17.3-12.3h3.1c2.2 4.7 7 7.9 12.5 7.9.3-.1.6-.1.8-.1"/></g></svg>